<svg width="32" height="32" viewBox="0 0 32 32" fill="none" xmlns="http://www.w3.org/2000/svg">
<rect x="0.5" y="0.5" width="31" height="31" rx="3.5" fill="#A68665" fill-opacity="0.05" stroke="#A68665"/>
<path d="M16 8C11.582 8 8 11.582 8 16C8 20.0107 10.9547 23.3227 14.804 23.9013V18.12H12.8247V16.0173H14.804V14.618C14.804 12.3013 15.9327 11.2847 17.858 11.2847C18.78 11.2847 19.268 11.3533 19.4987 11.384V13.2193H18.1853C17.368 13.2193 17.0827 13.9947 17.0827 14.868V16.0173H19.478L19.1533 18.12H17.0827V23.918C20.9873 23.3887 24 20.05 24 16C24 11.582 20.418 8 16 8Z" fill="#A68665"/>
</svg>
