<svg width="48" height="60" viewBox="0 0 48 60" fill="none" xmlns="http://www.w3.org/2000/svg">
<path fill-rule="evenodd" clip-rule="evenodd" d="M22.6865 57.9428C23.872 57.9428 45.0558 35.309 45.0558 22.9548C45.0558 10.6005 35.0406 0.585449 22.6865 0.585449C10.3322 0.585449 0.317139 10.6005 0.317139 22.9548C0.317139 35.309 21.5009 57.9428 22.6865 57.9428ZM22.6865 34.1432C28.9501 34.1432 34.0278 29.0654 34.0278 22.8018C34.0278 16.5382 28.9501 11.4605 22.6865 11.4605C16.4229 11.4605 11.3452 16.5382 11.3452 22.8018C11.3452 29.0654 16.4229 34.1432 22.6865 34.1432Z" fill="#EFEFEF"/>
<path fill-rule="evenodd" clip-rule="evenodd" d="M0.317139 22.9548C0.317139 35.309 21.5009 57.9428 22.6865 57.9428V34.1432C16.4229 34.1429 11.3453 29.0654 11.3453 22.8018C11.3453 16.5382 16.4229 11.4606 22.6865 11.4605V0.585449C10.3322 0.585449 0.317139 10.6005 0.317139 22.9548Z" fill="white"/>
</svg>
