<svg width="131" height="25" viewBox="0 0 131 25" fill="none" xmlns="http://www.w3.org/2000/svg">
<path d="M4.8915 24V3.52L7.1315 5.76H0.4115V1.6H10.0755V24H4.8915ZM16.9108 24.256C16.0574 24.256 15.3214 23.968 14.7028 23.392C14.1054 22.7947 13.8068 22.0373 13.8068 21.12C13.8068 20.2027 14.1054 19.4667 14.7028 18.912C15.3214 18.336 16.0574 18.048 16.9108 18.048C17.7854 18.048 18.5214 18.336 19.1188 18.912C19.7161 19.4667 20.0148 20.2027 20.0148 21.12C20.0148 22.0373 19.7161 22.7947 19.1188 23.392C18.5214 23.968 17.7854 24.256 16.9108 24.256ZM31.9515 24.384C29.9035 24.384 28.1222 23.9573 26.6075 23.104C25.1142 22.2507 23.9622 21.0027 23.1515 19.36C22.3408 17.7173 21.9355 15.6907 21.9355 13.28C21.9355 10.6987 22.4155 8.512 23.3755 6.72C24.3568 4.928 25.7008 3.56267 27.4075 2.624C29.1355 1.68533 31.1195 1.216 33.3595 1.216C34.5542 1.216 35.6955 1.344 36.7835 1.6C37.8715 1.856 38.8102 2.24 39.5995 2.752L37.6795 6.56C37.0608 6.13333 36.3995 5.84533 35.6955 5.696C34.9915 5.52533 34.2555 5.44 33.4875 5.44C31.5462 5.44 30.0102 6.02667 28.8795 7.2C27.7488 8.37333 27.1835 10.112 27.1835 12.416C27.1835 12.8 27.1835 13.2267 27.1835 13.696C27.2048 14.1653 27.2688 14.6347 27.3755 15.104L25.9355 13.76C26.3408 12.928 26.8635 12.2347 27.5035 11.68C28.1435 11.104 28.9008 10.6773 29.7755 10.4C30.6715 10.1013 31.6528 9.952 32.7195 9.952C34.1702 9.952 35.4715 10.24 36.6235 10.816C37.7755 11.392 38.6928 12.2027 39.3755 13.248C40.0795 14.2933 40.4315 15.52 40.4315 16.928C40.4315 18.4427 40.0475 19.7653 39.2795 20.896C38.5328 22.0053 37.5195 22.8693 36.2395 23.488C34.9808 24.0853 33.5515 24.384 31.9515 24.384ZM31.6635 20.512C32.3888 20.512 33.0288 20.384 33.5835 20.128C34.1595 19.8507 34.6075 19.456 34.9275 18.944C35.2475 18.432 35.4075 17.8453 35.4075 17.184C35.4075 16.16 35.0555 15.3493 34.3515 14.752C33.6688 14.1333 32.7515 13.824 31.5995 13.824C30.8315 13.824 30.1595 13.9733 29.5835 14.272C29.0075 14.5493 28.5488 14.944 28.2075 15.456C27.8875 15.9467 27.7275 16.5227 27.7275 17.184C27.7275 17.824 27.8875 18.4 28.2075 18.912C28.5275 19.4027 28.9755 19.7973 29.5515 20.096C30.1275 20.3733 30.8315 20.512 31.6635 20.512ZM51.9105 24.384C50.0758 24.384 48.4332 23.936 46.9825 23.04C45.5318 22.1227 44.3905 20.8 43.5585 19.072C42.7265 17.344 42.3105 15.2533 42.3105 12.8C42.3105 10.3467 42.7265 8.256 43.5585 6.528C44.3905 4.8 45.5318 3.488 46.9825 2.592C48.4332 1.67467 50.0758 1.216 51.9105 1.216C53.7665 1.216 55.4092 1.67467 56.8385 2.592C58.2892 3.488 59.4305 4.8 60.2625 6.528C61.0945 8.256 61.5105 10.3467 61.5105 12.8C61.5105 15.2533 61.0945 17.344 60.2625 19.072C59.4305 20.8 58.2892 22.1227 56.8385 23.04C55.4092 23.936 53.7665 24.384 51.9105 24.384ZM51.9105 20C52.7852 20 53.5425 19.7547 54.1825 19.264C54.8438 18.7733 55.3558 17.9947 55.7185 16.928C56.1025 15.8613 56.2945 14.4853 56.2945 12.8C56.2945 11.1147 56.1025 9.73867 55.7185 8.672C55.3558 7.60533 54.8438 6.82667 54.1825 6.336C53.5425 5.84533 52.7852 5.6 51.9105 5.6C51.0572 5.6 50.2998 5.84533 49.6385 6.336C48.9985 6.82667 48.4865 7.60533 48.1025 8.672C47.7398 9.73867 47.5585 11.1147 47.5585 12.8C47.5585 14.4853 47.7398 15.8613 48.1025 16.928C48.4865 17.9947 48.9985 18.7733 49.6385 19.264C50.2998 19.7547 51.0572 20 51.9105 20ZM73.6293 24.384C71.7946 24.384 70.1519 23.936 68.7013 23.04C67.2506 22.1227 66.1093 20.8 65.2773 19.072C64.4453 17.344 64.0293 15.2533 64.0293 12.8C64.0293 10.3467 64.4453 8.256 65.2773 6.528C66.1093 4.8 67.2506 3.488 68.7013 2.592C70.1519 1.67467 71.7946 1.216 73.6293 1.216C75.4853 1.216 77.1279 1.67467 78.5573 2.592C80.0079 3.488 81.1493 4.8 81.9813 6.528C82.8133 8.256 83.2293 10.3467 83.2293 12.8C83.2293 15.2533 82.8133 17.344 81.9813 19.072C81.1493 20.8 80.0079 22.1227 78.5573 23.04C77.1279 23.936 75.4853 24.384 73.6293 24.384ZM73.6293 20C74.5039 20 75.2613 19.7547 75.9013 19.264C76.5626 18.7733 77.0746 17.9947 77.4373 16.928C77.8213 15.8613 78.0133 14.4853 78.0133 12.8C78.0133 11.1147 77.8213 9.73867 77.4373 8.672C77.0746 7.60533 76.5626 6.82667 75.9013 6.336C75.2613 5.84533 74.5039 5.6 73.6293 5.6C72.7759 5.6 72.0186 5.84533 71.3573 6.336C70.7173 6.82667 70.2053 7.60533 69.8213 8.672C69.4586 9.73867 69.2773 11.1147 69.2773 12.8C69.2773 14.4853 69.4586 15.8613 69.8213 16.928C70.2053 17.9947 70.7173 18.7733 71.3573 19.264C72.0186 19.7547 72.7759 20 73.6293 20ZM108.852 6.528C110.217 6.528 111.423 6.80533 112.468 7.36C113.535 7.89333 114.367 8.72533 114.964 9.856C115.583 10.9653 115.892 12.3947 115.892 14.144V24H110.9V14.912C110.9 13.5253 110.612 12.5013 110.036 11.84C109.46 11.1787 108.649 10.848 107.604 10.848C106.879 10.848 106.228 11.0187 105.652 11.36C105.076 11.68 104.628 12.1707 104.308 12.832C103.988 13.4933 103.828 14.336 103.828 15.36V24H98.836V14.912C98.836 13.5253 98.548 12.5013 97.972 11.84C97.4173 11.1787 96.6173 10.848 95.572 10.848C94.8467 10.848 94.196 11.0187 93.62 11.36C93.044 11.68 92.596 12.1707 92.276 12.832C91.956 13.4933 91.796 14.336 91.796 15.36V24H86.804V6.784H91.572V11.488L90.676 10.112C91.2733 8.93867 92.116 8.05333 93.204 7.456C94.3133 6.83733 95.572 6.528 96.98 6.528C98.5587 6.528 99.9347 6.93333 101.108 7.744C102.303 8.53333 103.092 9.74933 103.476 11.392L101.716 10.912C102.292 9.568 103.209 8.50133 104.468 7.712C105.748 6.92267 107.209 6.528 108.852 6.528ZM119.375 13.536V11.392L124.911 6.592C125.551 6.03733 125.967 5.58933 126.159 5.248C126.372 4.90667 126.479 4.58666 126.479 4.288C126.479 3.86133 126.287 3.50933 125.903 3.232C125.54 2.93333 124.964 2.784 124.175 2.784C123.513 2.784 122.927 2.90133 122.415 3.136C121.903 3.37067 121.497 3.712 121.199 4.16L118.639 2.624C119.172 1.83467 119.919 1.20533 120.879 0.735998C121.86 0.245331 123.055 -1.90735e-06 124.463 -1.90735e-06C126.212 -1.90735e-06 127.577 0.373332 128.559 1.12C129.54 1.86667 130.031 2.83733 130.031 4.032C130.031 4.672 129.871 5.30133 129.551 5.92C129.231 6.51733 128.548 7.264 127.503 8.16L123.055 12.032L122.319 10.848H130.543V13.536H119.375Z" fill="#A68665"/>
</svg>
