<svg width="19" height="23" viewBox="0 0 19 23" fill="none" xmlns="http://www.w3.org/2000/svg">
<path d="M1.1185 23V19.64L9.7585 11.48C10.4412 10.8613 10.9425 10.3067 11.2625 9.816C11.5825 9.32533 11.7958 8.87733 11.9025 8.472C12.0305 8.06667 12.0945 7.69333 12.0945 7.352C12.0945 6.456 11.7852 5.77333 11.1665 5.304C10.5692 4.81333 9.68383 4.568 8.5105 4.568C7.57183 4.568 6.69717 4.74933 5.8865 5.112C5.09717 5.47467 4.42517 6.04 3.8705 6.808L0.0945 4.376C0.947833 3.096 2.1425 2.08267 3.6785 1.336C5.2145 0.589333 6.98517 0.216 8.9905 0.216C10.6545 0.216 12.1052 0.493333 13.3425 1.048C14.6012 1.58133 15.5718 2.33867 16.2545 3.32C16.9585 4.30133 17.3105 5.47467 17.3105 6.84C17.3105 7.56533 17.2145 8.29067 17.0225 9.016C16.8518 9.72 16.4892 10.4667 15.9345 11.256C15.4012 12.0453 14.6118 12.9307 13.5665 13.912L6.3985 20.664L5.4065 18.776H18.0465V23H1.1185Z" fill="#A68665"/>
</svg>
