<svg width="79" height="24" viewBox="0 0 79 24" fill="none" xmlns="http://www.w3.org/2000/svg">
<path d="M8.5745 23.384C7.01717 23.384 5.4705 23.1813 3.9345 22.776C2.3985 22.3493 1.09717 21.752 0.0305 20.984L2.0465 17.016C2.89983 17.6347 3.89183 18.1253 5.0225 18.488C6.15317 18.8507 7.2945 19.032 8.4465 19.032C9.74783 19.032 10.7718 18.776 11.5185 18.264C12.2652 17.752 12.6385 17.048 12.6385 16.152C12.6385 15.2987 12.3078 14.6267 11.6465 14.136C10.9852 13.6453 9.9185 13.4 8.4465 13.4H6.0785V9.976L12.3185 2.904L12.8945 4.76H1.1505V0.599998H16.8305V3.96L10.6225 11.032L7.9985 9.528H9.5025C12.2545 9.528 14.3345 10.1467 15.7425 11.384C17.1505 12.6213 17.8545 14.2107 17.8545 16.152C17.8545 17.4107 17.5238 18.5947 16.8625 19.704C16.2012 20.792 15.1878 21.6773 13.8225 22.36C12.4572 23.0427 10.7078 23.384 8.5745 23.384ZM40.9265 23V19.64L40.6065 18.904V12.888C40.6065 11.8213 40.2758 10.9893 39.6145 10.392C38.9745 9.79467 37.9825 9.496 36.6385 9.496C35.7212 9.496 34.8145 9.64533 33.9185 9.944C33.0438 10.2213 32.2972 10.6053 31.6785 11.096L29.8865 7.608C30.8252 6.94667 31.9558 6.43467 33.2785 6.072C34.6012 5.70933 35.9452 5.528 37.3105 5.528C39.9345 5.528 41.9718 6.14667 43.4225 7.384C44.8732 8.62133 45.5985 10.552 45.5985 13.176V23H40.9265ZM35.6785 23.256C34.3345 23.256 33.1825 23.032 32.2225 22.584C31.2625 22.1147 30.5265 21.4853 30.0145 20.696C29.5025 19.9067 29.2465 19.0213 29.2465 18.04C29.2465 17.016 29.4918 16.12 29.9825 15.352C30.4945 14.584 31.2945 13.9867 32.3825 13.56C33.4705 13.112 34.8892 12.888 36.6385 12.888H41.2145V15.8H37.1825C36.0092 15.8 35.1985 15.992 34.7505 16.376C34.3238 16.76 34.1105 17.24 34.1105 17.816C34.1105 18.456 34.3558 18.968 34.8465 19.352C35.3585 19.7147 36.0518 19.896 36.9265 19.896C37.7585 19.896 38.5052 19.704 39.1665 19.32C39.8278 18.9147 40.3078 18.328 40.6065 17.56L41.3745 19.864C41.0118 20.9733 40.3505 21.816 39.3905 22.392C38.4305 22.968 37.1932 23.256 35.6785 23.256ZM57.867 18.296V14.808L68.427 0.599998H73.867L63.531 14.808L61.003 14.072H78.635V18.296H57.867ZM69.931 23V18.296L70.091 14.072V9.88H74.987V23H69.931Z" fill="#A68665"/>
</svg>
