<svg width="41" height="40" viewBox="0 0 41 40" fill="none" xmlns="http://www.w3.org/2000/svg">
<path d="M5.91672 34.2948V11.7949H12.5834V5.12821H28.4166V18.4615H35.0833V34.2948H22.5834V27.6282H18.4166V34.2948H5.91672ZM8.41663 31.7949H12.5834V27.6282H8.41663V31.7949ZM8.41663 25.1282H12.5834V20.9615H8.41663V25.1282ZM8.41663 18.4615H12.5834V14.2948H8.41663V18.4615ZM15.0833 25.1282H19.2501V20.9615H15.0833V25.1282ZM15.0833 18.4615H19.2501V14.2948H15.0833V18.4615ZM15.0833 11.7949H19.2501V7.62817H15.0833V11.7949ZM21.75 25.1282H25.9167V20.9615H21.75V25.1282ZM21.75 18.4615H25.9167V14.2948H21.75V18.4615ZM21.75 11.7949H25.9167V7.62817H21.75V11.7949ZM28.4166 31.7949H32.5834V27.6282H28.4166V31.7949ZM28.4166 25.1282H32.5834V20.9615H28.4166V25.1282Z" fill="#A68665"/>
</svg>
