<svg width="206" height="59" viewBox="0 0 206 59" fill="none" xmlns="http://www.w3.org/2000/svg">
<g clip-path="url(#clip0_44_288)">
<path d="M206 20.3027C177.686 19.3814 149.218 18.8525 120.725 18.6979C119.166 18.692 117.63 18.3473 116.219 17.6876L116.1 17.6281C114.833 17.0397 113.821 16.0115 113.249 14.7337L111.523 10.8705C111.261 10.2821 110.428 10.2821 110.166 10.8705L108.44 14.7337C107.869 16.0115 106.857 17.0338 105.589 17.6281H105.577C104.149 18.2997 102.595 18.6444 101.024 18.6444C67.2758 18.6682 33.5278 19.221 0.00588989 20.3027C33.6289 21.3843 67.4663 21.9371 101.31 21.9609C102.833 21.9609 104.339 22.2818 105.726 22.9059C107.089 23.518 108.16 24.6294 108.726 26.0142L110.19 29.61C110.434 30.2162 111.291 30.2281 111.559 29.6338L113.255 25.8419C113.827 24.5641 114.839 23.5418 116.106 22.9475L116.154 22.9237C117.565 22.264 119.1 21.9193 120.66 21.9133C149.182 21.7588 177.674 21.2239 206.006 20.3027H206Z" fill="#A58565"/>
<path d="M49.8067 58.9465L47.9258 56.5513C47.6758 56.581 47.4318 56.6048 47.158 56.6048H44.9022V58.9465H44.3248V51.7847H47.152C49.1341 51.7847 50.3304 52.6881 50.3304 54.1977C50.3304 55.3329 49.6519 56.1233 48.4793 56.4383L50.4495 58.9465H49.7948H49.8067ZM47.158 56.1412C48.8484 56.1412 49.7531 55.422 49.7531 54.1977C49.7531 52.9733 48.8484 52.2542 47.158 52.2542H44.9022V56.1412H47.158Z" fill="white"/>
<path d="M64.0737 58.4769V58.9465H58.6276V51.7847H63.9011V52.2542H59.199V55.0773H63.4011V55.5349H59.199V58.471H64.0677L64.0737 58.4769Z" fill="white"/>
<path d="M71.5613 58.0254L71.8232 57.6391C72.3649 58.1502 73.3648 58.5425 74.4302 58.5425C76.0075 58.5425 76.7099 57.9184 76.7099 57.1398C76.7099 54.9883 71.7816 56.2781 71.7816 53.6392C71.7816 52.6288 72.6387 51.7373 74.579 51.7373C75.448 51.7373 76.3468 51.981 76.9598 52.3792L76.7456 52.8012C76.0908 52.3911 75.2933 52.1949 74.579 52.1949C73.0434 52.1949 72.3589 52.8368 72.3589 53.6273C72.3589 55.7788 77.2872 54.5069 77.2872 57.1042C77.2872 58.1146 76.3944 59.0001 74.4481 59.0001C73.2755 59.0001 72.1506 58.6019 71.5732 58.0254H71.5613Z" fill="white"/>
<path d="M85.4117 51.7847H85.9891V58.9465H85.4117V51.7847Z" fill="white"/>
<path d="M94.9231 51.7847H98.0479C100.554 51.7847 102.244 53.2765 102.244 55.3685C102.244 57.4606 100.554 58.9524 98.0479 58.9524H94.9231V51.7906V51.7847ZM98.0003 58.4769C100.232 58.4769 101.667 57.1872 101.667 55.3685C101.667 53.5499 100.232 52.2601 98.0003 52.2601H95.5004V58.4829H98.0003V58.4769Z" fill="white"/>
<path d="M115.868 58.4769V58.9465H110.422V51.7847H115.696V52.2542H110.994V55.0773H115.196V55.5349H110.994V58.471H115.862L115.868 58.4769Z" fill="white"/>
<path d="M130.582 51.7847V58.9465H130.106L124.725 52.7237V58.9465H124.148V51.7847H124.63L129.998 58.0074V51.7847H130.576H130.582Z" fill="white"/>
<path d="M138.766 55.3687C138.766 53.2826 140.516 51.7373 142.861 51.7373C143.98 51.7373 144.98 52.0642 145.67 52.7298L145.307 53.0686C144.629 52.4624 143.807 52.2187 142.885 52.2187C140.867 52.2187 139.343 53.5679 139.343 55.3687C139.343 57.1696 140.867 58.5187 142.885 58.5187C143.807 58.5187 144.635 58.2631 145.307 57.6569L145.67 57.9957C144.98 58.6613 143.98 59.0001 142.861 59.0001C140.516 59.0001 138.766 57.4548 138.766 55.3687Z" fill="white"/>
<path d="M159.223 58.4769V58.9465H153.777V51.7847H159.05V52.2542H154.348V55.0773H158.55V55.5349H154.348V58.471H159.217L159.223 58.4769Z" fill="white"/>
<path d="M11.8505 24.564H6.89246V38.1149H11.8505V24.564Z" fill="white"/>
<path d="M11.8505 0.921387H6.89246V16.0533H11.8505V0.921387Z" fill="white"/>
<path d="M51.5863 39.036C61.5619 39.036 69.1746 35.9633 73.5672 28.2428L69.1686 26.2993C65.7879 31.9812 60.1513 35.048 52.0327 35.048C41.8845 35.048 35.7777 30.7985 33.8909 24.5698H28.7662C30.7958 32.9322 38.218 39.042 51.5804 39.042L51.5863 39.036Z" fill="white"/>
<path d="M51.5863 3.78594C59.4192 3.78594 65.7879 6.34159 68.6627 12.4336L72.9482 10.6446C69.2877 3.06679 60.3239 0 51.5327 0C39.0573 0 30.0816 5.55112 28.4626 16.0531H33.6469C35.1944 8.08301 41.4797 3.78594 51.5863 3.78594Z" fill="white"/>
<path d="M110.714 3.78594C121.195 3.78594 127.909 9.11716 129.356 16.0531H134.397C132.576 5.91367 123.189 0 110.714 0C98.2384 0 88.846 5.91961 87.0307 16.0531H92.072C93.5184 9.11121 100.232 3.78594 110.714 3.78594Z" fill="white"/>
<path d="M110.714 35.048C102.5 35.048 95.1076 31.8564 92.6435 24.5698H87.3045C89.8877 34.4418 100.429 39.042 110.714 39.042C120.999 39.042 131.54 34.4418 134.123 24.5698H128.778C126.29 31.8624 118.838 35.048 110.72 35.048H110.714Z" fill="white"/>
<path d="M155.806 4.9094L166.812 16.0533H173.198L158.116 0.921387H151.069V16.0533H155.806V4.9094Z" fill="white"/>
<path d="M193.566 0.921387H188.608V16.0533H193.566V0.921387Z" fill="white"/>
<path d="M155.801 24.564H151.069V38.1149H155.801V24.564Z" fill="white"/>
<path d="M188.608 31.5177L181.68 24.564H175.222L188.608 38.1149H193.566V24.564H188.608V31.5177Z" fill="white"/>
</g>
<defs>
<clipPath id="clip0_44_288">
<rect width="206" height="59" fill="white"/>
</clipPath>
</defs>
</svg>
