<svg width="39" height="24" viewBox="0 0 39 24" fill="none" xmlns="http://www.w3.org/2000/svg">
<g clip-path="url(#clip0_44_336)">
<path d="M16.6325 14.0243C17.4701 14.4016 18.1303 15.0863 18.4764 15.9373L19.3764 18.1496C19.5279 18.5224 20.0537 18.5313 20.2178 18.1637L21.2597 15.8289C21.6102 15.0439 22.2318 14.4112 23.0108 14.0466L23.0242 14.0407C23.9859 13.5914 25.0293 13.3389 26.0912 13.3084C30.2543 13.1866 34.4115 12.9327 38.5613 12.4203C34.4264 11.9101 30.2848 11.6561 26.1365 11.5336C25.0753 11.5024 24.0327 11.2506 23.071 10.8013L23.0108 10.7731C22.2318 10.4092 21.6102 9.77653 21.2597 8.99084L20.1985 6.61297C20.0374 6.25206 19.5242 6.25206 19.3631 6.61297L18.3019 8.99084C17.9514 9.77579 17.3298 10.4085 16.5508 10.7731L16.5471 10.7746C15.575 11.2291 14.5205 11.4816 13.4481 11.5083C8.95748 11.6197 4.47503 11.8707 0 12.4203C4.53518 12.9772 9.07853 13.2275 13.6301 13.3359C14.6667 13.3604 15.6871 13.5981 16.6325 14.0236V14.0243Z" fill="#A58565"/>
<path d="M19.6913 2.32737C26.0949 2.32737 30.2083 5.56965 31.1232 9.80481H34.2192C33.0741 3.61359 27.3225 0 19.6913 0C12.0602 0 6.3093 3.61359 5.16344 9.80556H8.25942C9.17433 5.57039 13.2877 2.32811 19.6913 2.32811V2.32737Z" fill="white"/>
<path d="M19.6913 21.5463C14.6266 21.5463 10.0729 19.5679 8.58023 15.0469H5.30453C6.86478 21.1542 13.356 23.9999 19.6913 23.9999C26.0266 23.9999 32.5179 21.1534 34.0781 15.0469H30.7972C29.2897 19.5679 24.6995 21.5463 19.6913 21.5463Z" fill="white"/>
</g>
<defs>
<clipPath id="clip0_44_336">
<rect width="38.562" height="24" fill="white"/>
</clipPath>
</defs>
</svg>
