<svg width="41" height="40" viewBox="0 0 41 40" fill="none" xmlns="http://www.w3.org/2000/svg">
<path d="M20.4972 26.2179C21.7256 26.2179 22.8205 25.8488 23.782 25.1105C24.7436 24.3723 25.4444 23.4316 25.8846 22.2885H15.1154C15.5556 23.4316 16.2555 24.3723 17.2152 25.1105C18.1748 25.8488 19.2688 26.2179 20.4972 26.2179ZM16.6576 19.9359C17.2641 19.9359 17.7783 19.7236 18.2003 19.2991C18.6223 18.8746 18.8333 18.3591 18.8333 17.7527C18.8333 17.1462 18.6211 16.632 18.1966 16.21C17.772 15.788 17.2566 15.577 16.6501 15.577C16.0436 15.577 15.5294 15.7892 15.1074 16.2137C14.6854 16.6382 14.4744 17.1537 14.4744 17.7602C14.4744 18.3666 14.6867 18.8809 15.1112 19.3029C15.5357 19.7249 16.0512 19.9359 16.6576 19.9359ZM24.3499 19.9359C24.9564 19.9359 25.4706 19.7236 25.8926 19.2991C26.3146 18.8746 26.5256 18.3591 26.5256 17.7527C26.5256 17.1462 26.3133 16.632 25.8888 16.21C25.4643 15.788 24.9488 15.577 24.3424 15.577C23.7359 15.577 23.2217 15.7892 22.7997 16.2137C22.3777 16.6382 22.1667 17.1537 22.1667 17.7602C22.1667 18.3666 22.3789 18.8809 22.8035 19.3029C23.228 19.7249 23.7435 19.9359 24.3499 19.9359ZM13.6251 11.2436L18.1314 5.33016C18.4306 4.92986 18.7858 4.63587 19.1971 4.4482C19.6085 4.26054 20.0428 4.1667 20.5 4.1667C20.9573 4.1667 21.3916 4.26054 21.8029 4.4482C22.2142 4.63587 22.5695 4.92986 22.8686 5.33016L27.375 11.2436L34.266 13.5705C34.9241 13.7821 35.4375 14.1553 35.806 14.6901C36.1746 15.2249 36.3589 15.8157 36.3589 16.4625C36.3589 16.761 36.3153 17.0586 36.2281 17.3553C36.1408 17.652 35.9975 17.9364 35.798 18.2083L31.3108 24.4359L31.4775 31.0448C31.5053 31.9224 31.216 32.6621 30.6098 33.2639C30.0035 33.8657 29.297 34.1666 28.4904 34.1666C28.4669 34.1666 28.188 34.1303 27.6538 34.0576L20.5 32.0063L13.3462 34.0576C13.2073 34.1132 13.0639 34.1452 12.9161 34.1538C12.7683 34.1623 12.6328 34.1666 12.5096 34.1666C11.6955 34.1666 10.9872 33.8657 10.3847 33.2639C9.78212 32.6621 9.49473 31.9224 9.52251 31.0448L9.68918 24.3942L5.22763 18.2083C5.02819 17.9353 4.88484 17.6498 4.79759 17.352C4.71034 17.0541 4.66672 16.7562 4.66672 16.4583C4.66672 15.8298 4.8498 15.2453 5.21597 14.7047C5.58213 14.1642 6.0935 13.7808 6.75005 13.5545L13.6251 11.2436ZM15.1699 13.3974L7.5513 15.9359C7.39105 15.9893 7.28154 16.0988 7.22276 16.2644C7.16401 16.43 7.18805 16.5823 7.29488 16.7212L12.2051 23.6506L12.0224 31.0961C12.0118 31.2778 12.0759 31.422 12.2148 31.5288C12.3536 31.6357 12.5086 31.6624 12.6795 31.609L20.5 29.4135L28.3205 31.6506C28.4914 31.7041 28.6464 31.6774 28.7853 31.5705C28.9241 31.4637 28.9883 31.3194 28.9776 31.1378L28.7949 23.6506L33.7051 16.8045C33.812 16.6656 33.836 16.5134 33.7773 16.3477C33.7185 16.1821 33.609 16.0726 33.4487 16.0192L25.8301 13.3974L20.9007 6.89104C20.8045 6.75215 20.671 6.6827 20.5 6.6827C20.3291 6.6827 20.1955 6.75215 20.0993 6.89104L15.1699 13.3974Z" fill="#A68665"/>
</svg>
