<svg width="80" height="50" viewBox="0 0 80 50" fill="none" xmlns="http://www.w3.org/2000/svg">
<g opacity="0.6" clip-path="url(#clip0_44_378)">
<path d="M34.5054 29.2175C36.2432 30.0034 37.6128 31.4299 38.3307 33.2029L40.198 37.8118C40.5123 38.5884 41.603 38.607 41.9435 37.8412L44.105 32.977C44.8322 31.3417 46.1217 30.0235 47.7378 29.2639L47.7655 29.2515C49.7606 28.3155 51.9252 27.7895 54.1283 27.7261C62.765 27.4723 71.3894 26.9432 79.9985 25.8757C71.4203 24.8128 62.8282 24.2837 54.2223 24.0284C52.0207 23.9635 49.8577 23.439 47.8626 22.503L47.7378 22.4442C46.1217 21.6861 44.8322 20.3679 44.105 18.7311L41.9034 13.7772C41.5691 13.0253 40.5046 13.0253 40.1702 13.7772L37.9687 18.7311C37.2415 20.3664 35.952 21.6845 34.3359 22.4442L34.3282 22.4473C32.3115 23.3941 30.1238 23.9201 27.8992 23.9758C18.583 24.2079 9.2838 24.7308 0 25.8757C9.40859 27.036 18.8341 27.5574 28.2766 27.7833C30.4273 27.8344 32.5441 28.3294 34.5054 29.2159V29.2175Z" fill="white"/>
<path d="M40.8512 4.84869C54.136 4.84869 62.6695 11.6034 64.5676 20.4267H70.9904C68.6148 7.52831 56.6827 0 40.8512 0C25.0198 0 13.0892 7.52831 10.712 20.4282H17.1348C19.0329 11.605 27.5664 4.85024 40.8512 4.85024V4.84869Z" fill="white"/>
<path d="M40.8512 44.8883C30.3441 44.8883 20.897 40.7668 17.8004 31.3479H11.0047C14.2415 44.0715 27.7081 50 40.8512 50C53.9943 50 67.4609 44.0699 70.6977 31.3479H63.8912C60.7638 40.7668 51.2412 44.8883 40.8512 44.8883Z" fill="white"/>
</g>
<defs>
<clipPath id="clip0_44_378">
<rect width="80" height="50" fill="white"/>
</clipPath>
</defs>
</svg>
