<svg width="347" height="100" viewBox="0 0 347 100" fill="none" xmlns="http://www.w3.org/2000/svg">
<g clip-path="url(#clip0_44_226)">
<path d="M346.1 34.1599C298.53 32.6099 250.7 31.7199 202.83 31.4599C200.21 31.4499 197.63 30.8699 195.26 29.7599L195.06 29.6599C192.93 28.6699 191.23 26.9399 190.27 24.7899L187.37 18.2899C186.93 17.2999 185.53 17.2999 185.09 18.2899L182.19 24.7899C181.23 26.9399 179.53 28.6599 177.4 29.6599H177.38C174.98 30.7899 172.37 31.3699 169.73 31.3699C113.03 31.4099 56.33 32.3399 0.00999832 34.1599C56.5 35.9799 113.35 36.9099 170.21 36.9499C172.77 36.9499 175.3 37.4899 177.63 38.5399C179.92 39.5699 181.72 41.4399 182.67 43.7699L185.13 49.8199C185.54 50.8399 186.98 50.8599 187.43 49.8599L190.28 43.4799C191.24 41.3299 192.94 39.6099 195.07 38.6099L195.15 38.5699C197.52 37.4599 200.1 36.8799 202.72 36.8699C250.64 36.6099 298.51 35.7099 346.11 34.1599H346.1Z" fill="#A58565"/>
<path d="M83.68 99.1799L80.52 95.1499C80.1 95.1999 79.69 95.2399 79.23 95.2399H75.44V99.1799H74.47V87.1299H79.22C82.55 87.1299 84.56 88.6499 84.56 91.1899C84.56 93.0999 83.42 94.4299 81.45 94.9599L84.76 99.1799H83.66H83.68ZM79.23 94.4599C82.07 94.4599 83.59 93.2499 83.59 91.1899C83.59 89.1299 82.07 87.9199 79.23 87.9199H75.44V94.4599H79.23Z" fill="#1D1D1B"/>
<path d="M107.65 98.3899V99.1799H98.5V87.1299H107.36V87.9199H99.46V92.6699H106.52V93.4399H99.46V98.3799H107.64L107.65 98.3899Z" fill="#1D1D1B"/>
<path d="M120.23 97.6298L120.67 96.9798C121.58 97.8398 123.26 98.4998 125.05 98.4998C127.7 98.4998 128.88 97.4498 128.88 96.1398C128.88 92.5198 120.6 94.6898 120.6 90.2498C120.6 88.5498 122.04 87.0498 125.3 87.0498C126.76 87.0498 128.27 87.4598 129.3 88.1298L128.94 88.8398C127.84 88.1498 126.5 87.8198 125.3 87.8198C122.72 87.8198 121.57 88.8998 121.57 90.2298C121.57 93.8498 129.85 91.7098 129.85 96.0798C129.85 97.7798 128.35 99.2698 125.08 99.2698C123.11 99.2698 121.22 98.5998 120.25 97.6298H120.23Z" fill="#1D1D1B"/>
<path d="M143.5 87.1299H144.47V99.1799H143.5V87.1299Z" fill="#1D1D1B"/>
<path d="M159.48 87.1299H164.73C168.94 87.1299 171.78 89.6399 171.78 93.1599C171.78 96.6799 168.94 99.1899 164.73 99.1899H159.48V87.1399V87.1299ZM164.65 98.3899C168.4 98.3899 170.81 96.2199 170.81 93.1599C170.81 90.0999 168.4 87.9299 164.65 87.9299H160.45V98.3999H164.65V98.3899Z" fill="#1D1D1B"/>
<path d="M194.67 98.3899V99.1799H185.52V87.1299H194.38V87.9199H186.48V92.6699H193.54V93.4399H186.48V98.3799H194.66L194.67 98.3899Z" fill="#1D1D1B"/>
<path d="M219.39 87.1299V99.1799H218.59L209.55 88.7099V99.1799H208.58V87.1299H209.39L218.41 97.5999V87.1299H219.38H219.39Z" fill="#1D1D1B"/>
<path d="M233.14 93.1598C233.14 89.6498 236.08 87.0498 240.02 87.0498C241.9 87.0498 243.58 87.5998 244.74 88.7198L244.13 89.2898C242.99 88.2698 241.61 87.8598 240.06 87.8598C236.67 87.8598 234.11 90.1298 234.11 93.1598C234.11 96.1898 236.67 98.4598 240.06 98.4598C241.61 98.4598 243 98.0298 244.13 97.0098L244.74 97.5798C243.58 98.6998 241.9 99.2698 240.02 99.2698C236.08 99.2698 233.14 96.6698 233.14 93.1598Z" fill="#1D1D1B"/>
<path d="M267.51 98.3899V99.1799H258.36V87.1299H267.22V87.9199H259.32V92.6699H266.38V93.4399H259.32V98.3799H267.5L267.51 98.3899Z" fill="#1D1D1B"/>
<path d="M19.91 41.3301H11.58V64.1301H19.91V41.3301Z" fill="black"/>
<path d="M19.91 1.5498H11.58V27.0098H19.91V1.5498Z" fill="black"/>
<path d="M86.67 65.6798C103.43 65.6798 116.22 60.5098 123.6 47.5198L116.21 44.2498C110.53 53.8098 101.06 58.9698 87.42 58.9698C70.37 58.9698 60.11 51.8198 56.94 41.3398H48.33C51.74 55.4098 64.21 65.6898 86.66 65.6898L86.67 65.6798Z" fill="black"/>
<path d="M86.67 6.37C99.83 6.37 110.53 10.67 115.36 20.92L122.56 17.91C116.41 5.16 101.35 0 86.58 0C65.62 0 50.54 9.34 47.82 27.01H56.53C59.13 13.6 69.69 6.37 86.67 6.37Z" fill="black"/>
<path d="M186.01 6.37C203.62 6.37 214.9 15.34 217.33 27.01H225.8C222.74 9.95 206.97 0 186.01 0C165.05 0 149.27 9.96 146.22 27.01H154.69C157.12 15.33 168.4 6.37 186.01 6.37Z" fill="black"/>
<path d="M186.01 58.9698C172.21 58.9698 159.79 53.5998 155.65 41.3398H146.68C151.02 57.9498 168.73 65.6898 186.01 65.6898C203.29 65.6898 221 57.9498 225.34 41.3398H216.36C212.18 53.6098 199.66 58.9698 186.02 58.9698H186.01Z" fill="black"/>
<path d="M261.77 8.2598L280.26 27.0098H290.99L265.65 1.5498H253.81V27.0098H261.77V8.2598Z" fill="black"/>
<path d="M325.21 1.5498H316.88V27.0098H325.21V1.5498Z" fill="black"/>
<path d="M261.76 41.3301H253.81V64.1301H261.76V41.3301Z" fill="black"/>
<path d="M316.88 53.0301L305.24 41.3301H294.39L316.88 64.1301H325.21V41.3301H316.88V53.0301Z" fill="black"/>
</g>
<defs>
<clipPath id="clip0_44_226">
<rect width="346.1" height="99.27" fill="white"/>
</clipPath>
</defs>
</svg>
