<svg width="40" height="40" viewBox="0 0 40 40" fill="none" xmlns="http://www.w3.org/2000/svg">
<path d="M9.35892 30.8333V32.9166C9.35892 33.2708 9.23912 33.5677 8.99954 33.8073C8.75999 34.0468 8.46312 34.1666 8.10896 34.1666H7.08337C6.72921 34.1666 6.43233 34.0468 6.19275 33.8073C5.95317 33.5677 5.83337 33.2708 5.83337 32.9166V20.1282L9.23725 10.4167C9.36117 10.0342 9.58872 9.7303 9.91992 9.50489C10.2511 9.27944 10.6197 9.16672 11.0257 9.16672H29.0385C29.4285 9.16672 29.7826 9.2813 30.1008 9.51047C30.4189 9.73963 30.6396 10.0417 30.7628 10.4167L34.1666 20.1282V32.9166C34.1666 33.2708 34.0468 33.5677 33.8073 33.8073C33.5677 34.0468 33.2708 34.1666 32.9166 34.1666H31.891C31.5369 34.1666 31.24 34.0468 31.0004 33.8073C30.7609 33.5677 30.6411 33.2708 30.6411 32.9166V30.8333H9.35892ZM9.34613 17.6283H30.6539L28.5513 11.6667H11.4487L9.34613 17.6283ZM12.4397 26.4103C13.0461 26.4103 13.5603 26.198 13.9823 25.7735C14.4044 25.3489 14.6154 24.8335 14.6154 24.227C14.6154 23.6206 14.4031 23.1063 13.9786 22.6843C13.5541 22.2623 13.0386 22.0513 12.4321 22.0513C11.8257 22.0513 11.3114 22.2636 10.8894 22.6881C10.4674 23.1126 10.2564 23.6281 10.2564 24.2346C10.2564 24.841 10.4687 25.3552 10.8932 25.7773C11.3177 26.1993 11.8332 26.4103 12.4397 26.4103ZM27.5679 26.4103C28.1743 26.4103 28.6886 26.198 29.1106 25.7735C29.5326 25.3489 29.7436 24.8335 29.7436 24.227C29.7436 23.6206 29.5313 23.1063 29.1068 22.6843C28.6823 22.2623 28.1668 22.0513 27.5603 22.0513C26.9539 22.0513 26.4397 22.2636 26.0177 22.6881C25.5956 23.1126 25.3846 23.6281 25.3846 24.2346C25.3846 24.841 25.5969 25.3552 26.0214 25.7773C26.4459 26.1993 26.9614 26.4103 27.5679 26.4103ZM8.33333 28.3333H31.6667V20.1282H8.33333V28.3333Z" fill="#A68665"/>
</svg>
