<svg width="41" height="40" viewBox="0 0 41 40" fill="none" xmlns="http://www.w3.org/2000/svg">
<path d="M5.16354 35.2884L12.4712 14.8398L25.6121 27.9808L5.16354 35.2884ZM9.28525 31.1667L21.0353 27L13.4519 19.4167L9.28525 31.1667ZM23.8044 21.1731L22.407 19.7757L31.548 10.6347C32.3835 9.7992 33.3942 9.38147 34.58 9.38147C35.766 9.38147 36.7766 9.7992 37.6121 10.6347L38.4198 11.4423L37.0544 12.8398L36.2468 12.0321C35.7938 11.5791 35.2435 11.3526 34.5961 11.3526C33.9486 11.3526 33.3984 11.5791 32.9454 12.0321L23.8044 21.1731ZM17.7147 15.0834L16.3173 13.686L17.3173 12.686C17.813 12.1903 18.0609 11.5898 18.0609 10.8847C18.0609 10.1795 17.813 9.5791 17.3173 9.08338L16.266 8.03209L17.6634 6.63467L18.7147 7.68597C19.6036 8.57486 20.048 9.64109 20.048 10.8847C20.048 12.1283 19.6036 13.1945 18.7147 14.0834L17.7147 15.0834ZM20.7596 18.1283L19.3622 16.7308L25.1698 10.9232C25.6228 10.4702 25.8493 9.91995 25.8493 9.27251C25.8493 8.62506 25.6228 8.07484 25.1698 7.62184L22.6955 5.14751L24.0929 3.75009L26.5673 6.22442C27.4134 7.07059 27.8365 8.08662 27.8365 9.27251C27.8365 10.4584 27.4134 11.4744 26.5673 12.3206L20.7596 18.1283ZM26.8493 24.218L25.4519 22.8205L27.4454 20.827C28.345 19.9274 29.4304 19.4776 30.7018 19.4776C31.9732 19.4776 33.0587 19.9274 33.9582 20.827L35.9518 22.8205L34.5544 24.218L32.5608 22.2244C32.0544 21.718 31.4348 21.4648 30.7018 21.4648C29.9689 21.4648 29.3492 21.718 28.8428 22.2244L26.8493 24.218Z" fill="#A68665"/>
</svg>
