<svg width="40" height="40" viewBox="0 0 40 40" fill="none" xmlns="http://www.w3.org/2000/svg">
<path d="M3.75 34.5513V32.0193C4.70942 31.9658 5.45035 31.6854 5.97279 31.1779C6.49521 30.6705 7.4701 30.4167 8.89746 30.4167C10.3248 30.4167 11.3408 30.6945 11.9455 31.25C12.5502 31.8056 13.3846 32.0834 14.4487 32.0834C15.5128 32.0834 16.3472 31.8056 16.9519 31.25C17.5566 30.6945 18.5727 30.4167 20 30.4167C21.4273 30.4167 22.4487 30.6945 23.0641 31.25C23.6795 31.8056 24.5192 32.0834 25.5833 32.0834C26.6474 32.0834 27.4765 31.8056 28.0705 31.25C28.6645 30.6945 29.6752 30.4167 31.1025 30.4167C32.5299 30.4167 33.5048 30.6705 34.0272 31.1779C34.5497 31.6854 35.2906 31.9658 36.25 32.0193V34.5513C34.9316 34.4871 33.9995 34.1987 33.4535 33.6859C32.9076 33.173 32.1239 32.9166 31.1025 32.9166C30.0812 32.9166 29.2735 33.1944 28.6795 33.75C28.0855 34.3055 27.0534 34.5833 25.5833 34.5833C24.1132 34.5833 23.0705 34.3055 22.4551 33.75C21.8397 33.1944 21.0214 32.9166 20 32.9166C18.9786 32.9166 18.1656 33.1944 17.5609 33.75C16.9562 34.3055 15.9188 34.5833 14.4487 34.5833C12.9786 34.5833 11.9412 34.3055 11.3365 33.75C10.7318 33.1944 9.91882 32.9166 8.89746 32.9166C7.87607 32.9166 7.0924 33.173 6.54646 33.6859C6.00051 34.1987 5.06833 34.4871 3.75 34.5513ZM3.75 27.0513V24.5193C4.70942 24.4658 5.45035 24.1854 5.97279 23.6779C6.49521 23.1704 7.4701 22.9167 8.89746 22.9167C10.3248 22.9167 11.3451 23.1945 11.9583 23.75C12.5716 24.3056 13.4017 24.5834 14.4487 24.5834C15.5128 24.5834 16.3472 24.3056 16.9519 23.75C17.5566 23.1945 18.5727 22.9167 20 22.9167C21.4273 22.9167 22.4434 23.1945 23.0481 23.75C23.6528 24.3056 24.4872 24.5834 25.5513 24.5834C26.6154 24.5834 27.4498 24.3056 28.0545 23.75C28.6592 23.1945 29.6752 22.9167 31.1025 22.9167C32.5299 22.9167 33.5048 23.1704 34.0272 23.6779C34.5497 24.1854 35.2906 24.4658 36.25 24.5193V27.0513C34.9316 26.9871 33.9995 26.6987 33.4535 26.1859C32.9076 25.673 32.1239 25.4166 31.1025 25.4166C30.0812 25.4166 29.2863 25.6944 28.718 26.25C28.1496 26.8055 27.1047 27.0833 25.5833 27.0833C24.0962 27.0833 23.0492 26.8055 22.4423 26.25C21.8355 25.6944 21.0214 25.4166 20 25.4166C18.9444 25.4166 18.1357 25.6944 17.5737 26.25C17.0117 26.8055 15.9701 27.0833 14.4487 27.0833C12.9273 27.0833 11.8771 26.8055 11.2981 26.25C10.719 25.6944 9.91882 25.4166 8.89746 25.4166C7.87607 25.4166 7.0924 25.673 6.54646 26.1859C6.00051 26.6987 5.06833 26.9871 3.75 27.0513ZM12.2372 18.8077L17.6987 13.3461L15.5833 11.2307C14.6774 10.3247 13.7372 9.67678 12.7628 9.28684C11.7885 8.89686 10.5727 8.68585 9.11542 8.65379V5.41671C11.0278 5.44877 12.6111 5.68595 13.8654 6.12825C15.1197 6.57056 16.3568 7.40175 17.5769 8.62184L27.7628 18.8077C27.4188 19.0491 27.078 19.2388 26.7404 19.3766C26.4028 19.5144 26.0117 19.5833 25.5673 19.5833C24.6955 19.5833 23.9332 19.3055 23.2805 18.75C22.6277 18.1944 21.5342 17.9166 20 17.9166C18.4658 17.9166 17.3723 18.1944 16.7195 18.75C16.0668 19.3055 15.3045 19.5833 14.4327 19.5833C13.9883 19.5833 13.5972 19.5144 13.2596 19.3766C12.922 19.2388 12.5812 19.0491 12.2372 18.8077ZM27.609 5.57696C28.6795 5.57696 29.5881 5.95463 30.3349 6.70996C31.0817 7.46529 31.4551 8.36967 31.4551 9.42309C31.4551 10.4936 31.0817 11.4023 30.3349 12.149C29.5881 12.8958 28.6795 13.2692 27.609 13.2692C26.5385 13.2692 25.6298 12.8958 24.883 12.149C24.1362 11.4023 23.7628 10.4936 23.7628 9.42309C23.7628 8.36967 24.1362 7.46529 24.883 6.70996C25.6298 5.95463 26.5385 5.57696 27.609 5.57696Z" fill="#A68665"/>
</svg>
