<svg width="41" height="40" viewBox="0 0 41 40" fill="none" xmlns="http://www.w3.org/2000/svg">
<path d="M8.37499 32.9166C6.80449 32.9166 5.46903 32.3621 4.36861 31.2532C3.26814 30.1442 2.70082 28.7937 2.66666 27.2017C2.66666 26.9668 2.67786 26.7351 2.70028 26.5064C2.72273 26.2778 2.76173 26.0438 2.81728 25.8045L6.31728 11.8045C6.68206 10.3999 7.42461 9.26185 8.54495 8.39046C9.66528 7.51907 10.9419 7.08337 12.3749 7.08337H28.6249C30.0579 7.08337 31.3346 7.51907 32.4549 8.39046C33.5753 9.26185 34.3178 10.3999 34.6826 11.8045L38.1826 25.8045C38.2382 26.0438 38.2841 26.2847 38.3204 26.5273C38.3568 26.7698 38.3749 27.0085 38.3749 27.2434C38.3749 28.8354 37.8135 30.1789 36.6906 31.274C35.5678 32.3691 34.2129 32.9166 32.626 32.9166C31.5334 32.9166 30.5245 32.6298 29.5993 32.0561C28.6741 31.4824 27.9722 30.7051 27.4936 29.7243L26.3109 27.2917C26.14 26.9444 25.8835 26.684 25.5417 26.5104C25.1998 26.3368 24.8387 26.25 24.4583 26.25H16.5417C16.1641 26.25 15.8036 26.3354 15.4604 26.5064C15.1171 26.6773 14.86 26.9391 14.6891 27.2917L13.5064 29.7243C13.0384 30.7158 12.3382 31.4957 11.4057 32.0641C10.4732 32.6324 9.46293 32.9166 8.37499 32.9166ZM8.50432 30.4167C9.10402 30.4167 9.65386 30.2564 10.1539 29.9359C10.6539 29.6154 11.031 29.187 11.2853 28.6507L12.4519 26.2596C12.8357 25.4738 13.3985 24.8591 14.1404 24.4155C14.8823 23.9718 15.6827 23.75 16.5417 23.75H24.4583C25.3238 23.75 26.1256 23.9813 26.8638 24.4439C27.602 24.9065 28.1773 25.5171 28.5897 26.2757L29.7564 28.6507C30.0106 29.187 30.3878 29.6154 30.8878 29.9359C31.3878 30.2564 31.9413 30.4167 32.5485 30.4167C33.4432 30.4167 34.2101 30.117 34.8491 29.5177C35.4882 28.9183 35.8162 28.1763 35.8334 27.2917C35.8334 27.2767 35.8002 26.9807 35.734 26.4038L32.234 12.4455C32.0182 11.61 31.5785 10.9241 30.9151 10.3878C30.2516 9.85146 29.4882 9.58329 28.625 9.58329H12.375C11.5003 9.58329 10.7271 9.85146 10.0555 10.3878C9.38385 10.9241 8.95402 11.61 8.76599 12.4455L5.26599 26.4038C5.22113 26.5491 5.188 26.8312 5.16661 27.25C5.16661 28.1456 5.49407 28.8973 6.14899 29.5051C6.80393 30.1128 7.58905 30.4167 8.50432 30.4167ZM23 18.141C23.4081 18.141 23.7558 17.9973 24.0432 17.7099C24.3306 17.4225 24.4743 17.0748 24.4743 16.6667C24.4743 16.2586 24.3306 15.9108 24.0432 15.6234C23.7558 15.336 23.4081 15.1923 23 15.1923C22.5919 15.1923 22.2441 15.336 21.9567 15.6234C21.6693 15.9108 21.5257 16.2586 21.5257 16.6667C21.5257 17.0748 21.6693 17.4225 21.9567 17.7099C22.2441 17.9973 22.5919 18.141 23 18.141ZM26.3333 14.8077C26.7414 14.8077 27.0892 14.664 27.3766 14.3766C27.664 14.0892 27.8077 13.7414 27.8077 13.3333C27.8077 12.9252 27.664 12.5775 27.3766 12.2901C27.0892 12.0027 26.7414 11.859 26.3333 11.859C25.9252 11.859 25.5775 12.0027 25.2901 12.2901C25.0027 12.5775 24.859 12.9252 24.859 13.3333C24.859 13.7414 25.0027 14.0892 25.2901 14.3766C25.5775 14.664 25.9252 14.8077 26.3333 14.8077ZM26.3333 21.4743C26.7414 21.4743 27.0892 21.3306 27.3766 21.0433C27.664 20.7559 27.8077 20.4081 27.8077 20C27.8077 19.5919 27.664 19.2441 27.3766 18.9568C27.0892 18.6694 26.7414 18.5257 26.3333 18.5257C25.9252 18.5257 25.5775 18.6694 25.2901 18.9568C25.0027 19.2441 24.859 19.5919 24.859 20C24.859 20.4081 25.0027 20.7559 25.2901 21.0433C25.5775 21.3306 25.9252 21.4743 26.3333 21.4743ZM29.6667 18.141C30.0748 18.141 30.4225 17.9973 30.7099 17.7099C30.9973 17.4225 31.141 17.0748 31.141 16.6667C31.141 16.2586 30.9973 15.9108 30.7099 15.6234C30.4225 15.336 30.0748 15.1923 29.6667 15.1923C29.2585 15.1923 28.9108 15.336 28.6234 15.6234C28.336 15.9108 28.1923 16.2586 28.1923 16.6667C28.1923 17.0748 28.336 17.4225 28.6234 17.7099C28.9108 17.9973 29.2585 18.141 29.6667 18.141ZM14.6659 20.5769C14.9527 20.5769 15.1901 20.4831 15.3782 20.2954C15.5662 20.1077 15.6602 19.8704 15.6602 19.5833V17.6603H17.5833C17.8703 17.6603 18.1077 17.5665 18.2954 17.3789C18.4831 17.1914 18.5769 16.9542 18.5769 16.6674C18.5769 16.3806 18.4831 16.1432 18.2954 15.9551C18.1077 15.7671 17.8703 15.6731 17.5833 15.6731H15.6602V13.75C15.6602 13.463 15.5665 13.2256 15.3789 13.038C15.1914 12.8503 14.9542 12.7564 14.6674 12.7564C14.3806 12.7564 14.1432 12.8503 13.9551 13.038C13.7671 13.2256 13.6731 13.463 13.6731 13.75V15.6731H11.75C11.463 15.6731 11.2256 15.7669 11.0379 15.9544C10.8503 16.1419 10.7564 16.3791 10.7564 16.6659C10.7564 16.9527 10.8503 17.1902 11.0379 17.3782C11.2256 17.5662 11.463 17.6603 11.75 17.6603H13.6731V19.5833C13.6731 19.8704 13.7669 20.1077 13.9544 20.2954C14.1419 20.4831 14.3791 20.5769 14.6659 20.5769Z" fill="#A68665"/>
</svg>
