<svg width="41" height="40" viewBox="0 0 41 40" fill="none" xmlns="http://www.w3.org/2000/svg">
<path d="M33.8749 15.625L32.1346 13.8847L33.1602 12.8174C33.267 12.7105 33.3205 12.5903 33.3205 12.4567C33.3205 12.3232 33.267 12.203 33.1602 12.0962L28.4038 7.33979C28.297 7.23296 28.1768 7.17954 28.0433 7.17954C27.9097 7.17954 27.7895 7.23296 27.6826 7.33979L26.6153 8.36542L24.8333 6.58341L25.9231 5.452C26.4872 4.88792 27.1827 4.61282 28.0096 4.62671C28.8365 4.6406 29.532 4.92958 30.0961 5.49367L35.0063 10.4039C35.5704 10.968 35.8525 11.6566 35.8525 12.4696C35.8525 13.2826 35.5704 13.9712 35.0063 14.5352L33.8749 15.625ZM15.0769 34.4647C14.5128 35.0287 13.8243 35.3108 13.0113 35.3108C12.1982 35.3108 11.5097 35.0287 10.9456 34.4647L6.09946 29.6185C5.52468 29.0438 5.23729 28.3338 5.23729 27.4888C5.23729 26.6437 5.52468 25.9337 6.09946 25.359L7.12509 24.3333L8.90709 26.1153L7.85583 27.141C7.74897 27.2478 7.69554 27.368 7.69554 27.5016C7.69554 27.6351 7.74897 27.7553 7.85583 27.8622L12.6378 32.6442C12.7447 32.751 12.8649 32.8045 12.9984 32.8045C13.132 32.8045 13.2522 32.751 13.359 32.6442L14.3847 31.5929L16.1667 33.3749L15.0769 34.4647ZM31.4583 21.7949L33.5929 19.6603C33.6998 19.5534 33.7532 19.4306 33.7532 19.2917C33.7532 19.1528 33.6998 19.0299 33.5929 18.923L21.577 6.90708C21.4701 6.80022 21.3472 6.74679 21.2083 6.74679C21.0694 6.74679 20.9466 6.80022 20.8397 6.90708L18.7051 9.04166C18.5983 9.1485 18.5448 9.26869 18.5448 9.40225C18.5448 9.53583 18.5983 9.65604 18.7051 9.76287L30.7371 21.7949C30.844 21.9017 30.9642 21.9552 31.0978 21.9552C31.2313 21.9552 31.3515 21.9017 31.4583 21.7949ZM20.1603 33.0929L22.2949 30.9327C22.4017 30.8258 22.4552 30.7056 22.4552 30.5721C22.4552 30.4385 22.4017 30.3183 22.2949 30.2115L10.2885 18.2051C10.1817 18.0983 10.0615 18.0448 9.92792 18.0448C9.79436 18.0448 9.67416 18.0983 9.56729 18.2051L7.40709 20.3397C7.30022 20.4466 7.24679 20.5694 7.24679 20.7083C7.24679 20.8472 7.30022 20.9701 7.40709 21.077L19.423 33.0929C19.5299 33.1998 19.6528 33.2532 19.7917 33.2532C19.9306 33.2532 20.0534 33.1998 20.1603 33.0929ZM19.4455 23.8237L24.3494 18.9455L21.5545 16.1506L16.6763 21.0545L19.4455 23.8237ZM21.9263 34.8493C21.3515 35.4241 20.6399 35.7115 19.7917 35.7115C18.9434 35.7115 18.2319 35.4241 17.6571 34.8493L5.65071 22.8429C5.07593 22.2681 4.78854 21.5566 4.78854 20.7083C4.78854 19.8601 5.07593 19.1485 5.65071 18.5737L7.78529 16.4231C8.36007 15.8483 9.07 15.561 9.91509 15.561C10.7602 15.561 11.4701 15.8483 12.0449 16.4231L14.8943 19.2725L19.7981 14.3686L16.9488 11.5449C16.374 10.9701 16.0866 10.2559 16.0866 9.40225C16.0866 8.54864 16.374 7.83444 16.9488 7.25966L19.0994 5.10904C19.6742 4.53426 20.3841 4.24687 21.2292 4.24687C22.0743 4.24687 22.7842 4.53426 23.359 5.10904L35.391 17.141C35.9657 17.7158 36.2531 18.4257 36.2531 19.2708C36.2531 20.1159 35.9657 20.8258 35.391 21.4006L33.2403 23.5512C32.6656 24.126 31.9514 24.4134 31.0978 24.4134C30.2441 24.4134 29.5299 24.126 28.9551 23.5512L26.1314 20.7019L21.2275 25.6057L24.0769 28.4551C24.6517 29.0299 24.939 29.7398 24.939 30.5849C24.939 31.43 24.6517 32.1399 24.0769 32.7147L21.9263 34.8493Z" fill="#A68665"/>
</svg>
