<svg width="40" height="40" viewBox="0 0 40 40" fill="none" xmlns="http://www.w3.org/2000/svg">
<path d="M3.75 32.6986V30.282C4.51283 30.2393 5.16829 30.0929 5.71637 29.8429C6.26446 29.5929 6.81681 29.3301 7.37342 29.0545C7.93003 28.7788 8.54381 28.531 9.21475 28.3109C9.88569 28.0908 10.703 27.9808 11.6667 27.9808C12.6581 27.9808 13.4888 28.0988 14.1586 28.3349C14.8285 28.571 15.4631 28.8349 16.0625 29.1266C16.6619 29.4182 17.2639 29.6891 17.8686 29.9391C18.4733 30.1891 19.1837 30.3141 20 30.3141C20.8162 30.3141 21.5267 30.1891 22.1314 29.9391C22.7361 29.6891 23.3381 29.4182 23.9375 29.1266C24.5369 28.8349 25.1784 28.571 25.8622 28.3349C26.546 28.0988 27.3697 27.9808 28.3333 27.9808C29.3248 27.9808 30.149 28.0908 30.8061 28.3109C31.4631 28.531 32.07 28.7788 32.6266 29.0545C33.1832 29.3301 33.7398 29.5929 34.2965 29.8429C34.8531 30.0929 35.5042 30.2393 36.25 30.282V32.6986C35.3333 32.6666 34.5529 32.5255 33.9086 32.2755C33.2644 32.0255 32.6586 31.7627 32.0913 31.4871C31.524 31.2114 30.9573 30.9609 30.391 30.7355C29.8248 30.5101 29.1389 30.3973 28.3333 30.3973C27.5556 30.3973 26.8686 30.5154 26.2724 30.7515C25.6763 30.9876 25.0828 31.2515 24.492 31.5432C23.9012 31.8348 23.2569 32.1057 22.5593 32.3557C21.8616 32.6057 21.0085 32.7307 20 32.7307C18.9915 32.7307 18.1384 32.6057 17.4407 32.3557C16.7431 32.1057 16.0988 31.8348 15.508 31.5432C14.9172 31.2515 14.3307 30.9876 13.7484 30.7515C13.1661 30.5154 12.4722 30.3973 11.6667 30.3973C10.8889 30.3973 10.2099 30.5101 9.62979 30.7355C9.04968 30.9609 8.47597 31.2114 7.90867 31.4871C7.34136 31.7627 6.7356 32.0255 6.09137 32.2755C5.44712 32.5255 4.66664 32.6666 3.75 32.6986ZM3.75 25.7948V23.3782C4.51283 23.3355 5.16829 23.1891 5.71637 22.9391C6.26446 22.6891 6.81681 22.4263 7.37342 22.1507C7.93003 21.875 8.54381 21.6272 9.21475 21.407C9.88569 21.187 10.703 21.0769 11.6667 21.0769C12.6581 21.0769 13.4888 21.195 14.1586 21.4311C14.8285 21.6672 15.4631 21.9311 16.0625 22.2228C16.6619 22.5144 17.2639 22.7853 17.8686 23.0353C18.4733 23.2853 19.1837 23.4103 20 23.4103C20.8162 23.4103 21.5267 23.2853 22.1314 23.0353C22.7361 22.7853 23.3381 22.5144 23.9375 22.2228C24.5369 21.9311 25.1784 21.6672 25.8622 21.4311C26.546 21.195 27.3697 21.0769 28.3333 21.0769C29.3248 21.0769 30.149 21.187 30.8061 21.407C31.4631 21.6272 32.07 21.875 32.6266 22.1507C33.1832 22.4263 33.7398 22.6891 34.2965 22.9391C34.8531 23.1891 35.5042 23.3355 36.25 23.3782V25.7948C35.3333 25.7628 34.5529 25.6217 33.9086 25.3717C33.2644 25.1217 32.6586 24.8589 32.0913 24.5833C31.524 24.3077 30.9573 24.0571 30.391 23.8317C29.8248 23.6063 29.1389 23.4935 28.3333 23.4935C27.5385 23.4935 26.843 23.6116 26.2468 23.8477C25.6506 24.0838 25.0571 24.3477 24.4663 24.6394C23.8755 24.931 23.2356 25.2019 22.5465 25.4519C21.8573 25.7019 21.0085 25.8269 20 25.8269C18.9915 25.8269 18.1384 25.7019 17.4407 25.4519C16.7431 25.2019 16.0988 24.931 15.508 24.6394C14.9172 24.3477 14.3307 24.0838 13.7484 23.8477C13.1661 23.6116 12.4722 23.4935 11.6667 23.4935C10.8889 23.4935 10.2099 23.6063 9.62979 23.8317C9.04968 24.0571 8.47597 24.3077 7.90867 24.5833C7.34136 24.8589 6.7356 25.1217 6.09137 25.3717C5.44712 25.6217 4.66664 25.7628 3.75 25.7948ZM3.75 18.891V16.4744C4.51283 16.4317 5.16829 16.2853 5.71637 16.0353C6.26446 15.7853 6.81681 15.5225 7.37342 15.2468C7.93003 14.9712 8.54381 14.7233 9.21475 14.5033C9.88569 14.2832 10.703 14.1731 11.6667 14.1731C12.6581 14.1731 13.4888 14.2912 14.1586 14.5273C14.8285 14.7634 15.4631 15.0273 16.0625 15.319C16.6619 15.6106 17.2639 15.8815 17.8686 16.1315C18.4733 16.3815 19.1837 16.5065 20 16.5065C20.8162 16.5065 21.5267 16.3815 22.1314 16.1315C22.7361 15.8815 23.3381 15.6106 23.9375 15.319C24.5369 15.0273 25.1784 14.7634 25.8622 14.5273C26.546 14.2912 27.3697 14.1731 28.3333 14.1731C29.3248 14.1731 30.149 14.2832 30.8061 14.5033C31.4631 14.7233 32.07 14.9712 32.6266 15.2468C33.1832 15.5225 33.7398 15.7853 34.2965 16.0353C34.8531 16.2853 35.5042 16.4317 36.25 16.4744V18.891C35.3333 18.8589 34.5529 18.7179 33.9086 18.4679C33.2644 18.2179 32.6586 17.9551 32.0913 17.6795C31.524 17.4038 30.9573 17.1533 30.391 16.9279C29.8248 16.7025 29.1389 16.5898 28.3333 16.5898C27.5556 16.5898 26.8686 16.7078 26.2724 16.9439C25.6763 17.18 25.0828 17.4439 24.492 17.7356C23.9012 18.0273 23.2569 18.2981 22.5593 18.5481C21.8616 18.7981 21.0085 18.9231 20 18.9231C18.9915 18.9231 18.1384 18.7981 17.4407 18.5481C16.7431 18.2981 16.0988 18.0273 15.508 17.7356C14.9172 17.4439 14.3307 17.18 13.7484 16.9439C13.1661 16.7078 12.4722 16.5898 11.6667 16.5898C10.8889 16.5898 10.2099 16.7025 9.62979 16.9279C9.04968 17.1533 8.47597 17.4038 7.90867 17.6795C7.34136 17.9551 6.7356 18.2179 6.09137 18.4679C5.44712 18.7179 4.66664 18.8589 3.75 18.891ZM3.75 11.9872V9.57058C4.51283 9.52786 5.16829 9.3815 5.71637 9.1315C6.26446 8.8815 6.81681 8.61868 7.37342 8.34304C7.93003 8.0674 8.54381 7.81954 9.21475 7.59946C9.88569 7.37938 10.703 7.26933 11.6667 7.26933C12.6581 7.26933 13.4888 7.38739 14.1586 7.6235C14.8285 7.85961 15.4631 8.1235 16.0625 8.41517C16.6619 8.70683 17.2639 8.97767 17.8686 9.22767C18.4733 9.47767 19.1837 9.60267 20 9.60267C20.8162 9.60267 21.5267 9.47767 22.1314 9.22767C22.7361 8.97767 23.3381 8.70683 23.9375 8.41517C24.5369 8.1235 25.1784 7.85961 25.8622 7.6235C26.546 7.38739 27.3697 7.26933 28.3333 7.26933C29.3248 7.26933 30.149 7.37938 30.8061 7.59946C31.4631 7.81954 32.07 8.0674 32.6266 8.34304C33.1832 8.61868 33.7398 8.8815 34.2965 9.1315C34.8531 9.3815 35.5042 9.52786 36.25 9.57058V11.9872C35.3333 11.9552 34.5529 11.8141 33.9086 11.5641C33.2644 11.3141 32.6586 11.0513 32.0913 10.7757C31.524 10.5 30.9573 10.2495 30.391 10.0241C29.8248 9.79864 29.1389 9.68592 28.3333 9.68592C27.5556 9.68592 26.8686 9.80397 26.2724 10.0401C25.6763 10.2762 25.0828 10.5401 24.492 10.8317C23.9012 11.1234 23.2569 11.3942 22.5593 11.6442C21.8616 11.8942 21.0085 12.0192 20 12.0192C18.9915 12.0192 18.1384 11.8942 17.4407 11.6442C16.7431 11.3942 16.0988 11.1234 15.508 10.8317C14.9172 10.5401 14.3307 10.2762 13.7484 10.0401C13.1661 9.80397 12.4722 9.68592 11.6667 9.68592C10.8889 9.68592 10.2099 9.79864 9.62979 10.0241C9.04968 10.2495 8.47597 10.5 7.90867 10.7757C7.34136 11.0513 6.7356 11.3141 6.09137 11.5641C5.44712 11.8141 4.66664 11.9552 3.75 11.9872Z" fill="#A68665"/>
</svg>
