<svg width="32" height="32" viewBox="0 0 32 32" fill="none" xmlns="http://www.w3.org/2000/svg">
<rect x="0.5" y="0.5" width="31" height="31" rx="3.5" fill="#A68665" fill-opacity="0.05" stroke="#A68665"/>
<path d="M12.6654 8C10.0927 8 8 10.0946 8 12.668V19.3346C8 21.9073 10.0946 24 12.668 24H19.3346C21.9073 24 24 21.9054 24 19.332V12.6654C24 10.0927 21.9054 8 19.332 8H12.6654ZM20.6667 10.6667C21.0347 10.6667 21.3333 10.9653 21.3333 11.3333C21.3333 11.7013 21.0347 12 20.6667 12C20.2987 12 20 11.7013 20 11.3333C20 10.9653 20.2987 10.6667 20.6667 10.6667ZM16 12C18.206 12 20 13.794 20 16C20 18.206 18.206 20 16 20C13.794 20 12 18.206 12 16C12 13.794 13.794 12 16 12ZM16 13.3333C15.2928 13.3333 14.6145 13.6143 14.1144 14.1144C13.6143 14.6145 13.3333 15.2928 13.3333 16C13.3333 16.7072 13.6143 17.3855 14.1144 17.8856C14.6145 18.3857 15.2928 18.6667 16 18.6667C16.7072 18.6667 17.3855 18.3857 17.8856 17.8856C18.3857 17.3855 18.6667 16.7072 18.6667 16C18.6667 15.2928 18.3857 14.6145 17.8856 14.1144C17.3855 13.6143 16.7072 13.3333 16 13.3333Z" fill="#A68665"/>
</svg>
