<svg width="167" height="40" viewBox="0 0 167 40" fill="none" xmlns="http://www.w3.org/2000/svg">
<g clip-path="url(#clip0_44_635)">
<path d="M75.4693 23.6716H78.8179V31.2255C76.8302 32.8224 74.0538 33.6349 71.3583 33.6349C65.4515 33.6349 61.0941 29.5463 61.0941 23.887C61.0941 18.2278 65.4498 14.1392 71.4129 14.1392C74.5978 14.1392 77.2668 15.195 79.0626 17.2262L76.8302 19.3922C75.3337 17.9038 73.6171 17.2262 71.5766 17.2262C67.5202 17.2262 64.661 19.9613 64.661 23.887C64.661 27.8128 67.5202 30.5478 71.5484 30.5478C72.9094 30.5478 74.2439 30.2764 75.4693 29.5725V23.6699V23.6716Z" fill="white"/>
<path d="M98.2829 30.3851V33.3635H82.0292V31.0084L93.2459 17.3891H82.2193V14.4106H97.9273V16.7657L86.7106 30.3851H98.2812H98.2829Z" fill="white"/>
<path d="M108.052 17.2806H109.277V19.6199C108.64 20.0979 107.762 20.3536 106.934 20.3536C105.112 20.3536 103.77 19.1104 103.77 17.3716C103.77 15.6329 105.112 14.3896 106.959 14.3896C107.978 14.3896 108.821 14.7363 109.385 15.386L108.524 16.1774C108.101 15.7327 107.612 15.5261 107.024 15.5261C105.897 15.5261 105.128 16.2755 105.128 17.3716C105.128 18.4677 105.899 19.2172 107.008 19.2172C107.373 19.2172 107.712 19.1506 108.052 18.9703V17.2823V17.2806Z" fill="white"/>
<path d="M116.343 20.2539L115.225 18.6482H113.991V20.2539H112.649V14.4878H115.158C116.707 14.4878 117.676 15.2863 117.676 16.5802C117.676 17.4452 117.237 18.0791 116.484 18.4013L117.785 20.2539H116.343ZM115.084 15.5752H113.991V17.5853H115.084C115.905 17.5853 116.318 17.2071 116.318 16.5802C116.318 15.9534 115.905 15.5752 115.084 15.5752Z" fill="white"/>
<path d="M124.683 19.0176H121.991L121.477 20.2539H120.102L122.686 14.4878H124.012L126.604 20.2539H125.195L124.681 19.0176H124.683ZM124.26 18.0038L123.341 15.7958L122.422 18.0038H124.26Z" fill="white"/>
<path d="M128.882 19.685L129.338 18.6799C129.827 19.0336 130.556 19.2805 131.252 19.2805C132.047 19.2805 132.37 19.0178 132.37 18.6624C132.37 17.5838 128.998 18.3244 128.998 16.183C128.998 15.2024 129.794 14.3882 131.442 14.3882C132.171 14.3882 132.915 14.5615 133.454 14.8995L133.04 15.9133C132.502 15.6086 131.947 15.4598 131.433 15.4598C130.637 15.4598 130.331 15.7557 130.331 16.1182C130.331 17.181 133.702 16.4474 133.702 18.5643C133.702 19.5274 132.9 20.3521 131.243 20.3521C130.324 20.3521 129.396 20.0807 128.882 19.685Z" fill="white"/>
<path d="M136.294 19.685L136.75 18.6799C137.239 19.0336 137.968 19.2805 138.664 19.2805C139.46 19.2805 139.782 19.0178 139.782 18.6624C139.782 17.5838 136.41 18.3244 136.41 16.183C136.41 15.2024 137.206 14.3882 138.854 14.3882C139.583 14.3882 140.327 14.5615 140.866 14.8995L140.452 15.9133C139.914 15.6086 139.359 15.4598 138.845 15.4598C138.049 15.4598 137.743 15.7557 137.743 16.1182C137.743 17.181 141.114 16.4474 141.114 18.5643C141.114 19.5274 140.312 20.3521 138.655 20.3521C137.736 20.3521 136.808 20.0807 136.294 19.685Z" fill="white"/>
<path d="M144.162 14.4878H145.504V20.2539H144.162V14.4878Z" fill="white"/>
<path d="M108.831 27.8252V28.9125H103.762V28.0476L106.941 24.2339H103.827V23.1465H108.706V24.0115L105.533 27.8252H108.829H108.831Z" fill="white"/>
<path d="M115.639 27.6763H112.947L112.433 28.9125H111.058L113.642 23.1465H114.968L117.56 28.9125H116.151L115.637 27.6763H115.639ZM115.216 26.6625L114.297 24.4545L113.378 26.6625H115.216Z" fill="white"/>
<path d="M125.32 25.2389C125.32 26.5242 124.352 27.3226 122.803 27.3226H121.635V28.9125H120.294V23.1465H122.803C124.352 23.1465 125.32 23.9449 125.32 25.2389ZM123.963 25.2389C123.963 24.6051 123.549 24.2339 122.729 24.2339H121.635V26.2353H122.729C123.549 26.2353 123.963 25.864 123.963 25.2389Z" fill="white"/>
<path d="M133.428 25.2389C133.428 26.5242 132.459 27.3226 130.91 27.3226H129.743V28.9125H128.401V23.1465H130.91C132.459 23.1465 133.428 23.9449 133.428 25.2389ZM132.07 25.2389C132.07 24.6051 131.657 24.2339 130.836 24.2339H129.743V26.2353H130.836C131.657 26.2353 132.07 25.864 132.07 25.2389Z" fill="white"/>
<path d="M140.998 27.8409V28.9125H136.509V23.1465H140.889V24.2181H137.842V25.4701H140.533V26.5084H137.842V27.8427H140.997L140.998 27.8409Z" fill="white"/>
<path d="M144.195 23.1465H145.537V27.8252H148.444V28.9125H144.195V23.1465Z" fill="white"/>
<path d="M151.326 23.1465H152.667V28.9125H151.326V23.1465Z" fill="white"/>
<path d="M161.488 23.1465V28.9125H160.386L157.495 25.4123V28.9125H156.169V23.1465H157.278L160.16 26.6467V23.1465H161.486H161.488Z" fill="white"/>
<path d="M164.992 23.1465H166.333V28.9125H164.992V23.1465Z" fill="white"/>
<path d="M105.79 33.4462V33.7263H104.149V31.478H105.744V31.7582H104.471V32.4481H105.605V32.7212H104.471V33.4462H105.788H105.79Z" fill="white"/>
<path d="M109.487 32.7457V33.7245H109.177V32.7807C109.177 32.4463 109.015 32.2834 108.736 32.2834C108.426 32.2834 108.221 32.4795 108.221 32.849V33.7262H107.912V32.7824C107.912 32.448 107.75 32.2852 107.47 32.2852C107.16 32.2852 106.956 32.4813 106.956 32.8507V33.728H106.646V32.026H106.943V32.2799C107.067 32.1066 107.276 32.0103 107.535 32.0103C107.794 32.0103 108.015 32.1136 108.13 32.3254C108.258 32.1328 108.498 32.0103 108.788 32.0103C109.206 32.0103 109.489 32.2484 109.489 32.7492L109.487 32.7457Z" fill="white"/>
<path d="M112.209 32.875C112.209 33.3986 111.845 33.7453 111.343 33.7453C111.1 33.7453 110.887 33.6525 110.746 33.4686V34.3494H110.436V32.0241H110.734V32.2937C110.873 32.1046 111.093 32.0083 111.345 32.0083C111.845 32.0083 112.211 32.355 112.211 32.875H112.209ZM111.896 32.875C111.896 32.5161 111.648 32.278 111.318 32.278C110.989 32.278 110.744 32.5161 110.744 32.875C110.744 33.234 110.993 33.4756 111.318 33.4756C111.644 33.4756 111.896 33.2375 111.896 32.875Z" fill="white"/>
<path d="M113.936 32.0068V32.3063C113.91 32.3028 113.889 32.3028 113.866 32.3028C113.533 32.3028 113.327 32.5059 113.327 32.8771V33.7246H113.017V32.0226H113.315V32.308C113.424 32.1084 113.637 32.0068 113.938 32.0068H113.936Z" fill="white"/>
<path d="M116.218 32.9766H114.829C114.868 33.276 115.111 33.4739 115.449 33.4739C115.649 33.4739 115.817 33.4056 115.943 33.269L116.114 33.4686C115.959 33.649 115.723 33.7453 115.44 33.7453C114.887 33.7453 114.519 33.3828 114.519 32.875C114.519 32.3673 114.883 32.0083 115.378 32.0083C115.873 32.0083 116.225 32.362 116.225 32.8856C116.225 32.9118 116.222 32.9503 116.218 32.9784V32.9766ZM114.829 32.7542H115.928C115.896 32.4688 115.679 32.2657 115.378 32.2657C115.077 32.2657 114.862 32.4653 114.829 32.7542Z" fill="white"/>
<path d="M118.572 32.9766H117.183C117.222 33.276 117.465 33.4739 117.803 33.4739C118.003 33.4739 118.171 33.4056 118.297 33.269L118.468 33.4686C118.313 33.649 118.077 33.7453 117.794 33.7453C117.241 33.7453 116.873 33.3828 116.873 32.875C116.873 32.3673 117.237 32.0083 117.732 32.0083C118.227 32.0083 118.579 32.362 118.579 32.8856C118.579 32.9118 118.575 32.9503 118.572 32.9784V32.9766ZM117.183 32.7542H118.281C118.25 32.4688 118.033 32.2657 117.732 32.2657C117.431 32.2657 117.216 32.4653 117.183 32.7542Z" fill="white"/>
<path d="M121.01 32.7455V33.7243H120.7V32.7805C120.7 32.4461 120.533 32.2832 120.239 32.2832C119.91 32.2832 119.697 32.4793 119.697 32.8488V33.726H119.387V32.0241H119.685V32.2815C119.811 32.1081 120.03 32.0083 120.301 32.0083C120.718 32.0083 121.012 32.2464 121.012 32.7472L121.01 32.7455Z" fill="white"/>
<path d="M123.586 31.3428V33.7259H123.289V33.4562C123.149 33.6489 122.929 33.7452 122.678 33.7452C122.178 33.7452 121.813 33.395 121.813 32.8749C121.813 32.3549 122.178 32.0082 122.678 32.0082C122.921 32.0082 123.134 32.0975 123.274 32.2813V31.3428H123.584H123.586ZM123.28 32.8749C123.28 32.5124 123.031 32.2778 122.706 32.2778C122.38 32.2778 122.128 32.5124 122.128 32.8749C122.128 33.2374 122.377 33.4755 122.706 33.4755C123.035 33.4755 123.28 33.2374 123.28 32.8749Z" fill="white"/>
<path d="M124.496 31.4971C124.496 31.385 124.586 31.2939 124.706 31.2939C124.826 31.2939 124.915 31.3815 124.915 31.4901C124.915 31.6056 124.827 31.6949 124.706 31.6949C124.584 31.6949 124.496 31.6074 124.496 31.4953V31.4971ZM124.551 32.0241H124.861V33.7261H124.551V32.0241Z" fill="white"/>
<path d="M128.671 32.7457V33.7245H128.361V32.7807C128.361 32.4463 128.199 32.2834 127.919 32.2834C127.609 32.2834 127.405 32.4795 127.405 32.849V33.7262H127.095V32.7824C127.095 32.448 126.933 32.2852 126.653 32.2852C126.343 32.2852 126.139 32.4813 126.139 32.8507V33.728H125.829V32.026H126.127V32.2799C126.25 32.1066 126.459 32.0103 126.718 32.0103C126.977 32.0103 127.199 32.1136 127.313 32.3254C127.442 32.1328 127.681 32.0103 127.972 32.0103C128.389 32.0103 128.672 32.2484 128.672 32.7492L128.671 32.7457Z" fill="white"/>
<path d="M131.169 32.9766H129.78C129.819 33.276 130.061 33.4739 130.4 33.4739C130.6 33.4739 130.767 33.4056 130.894 33.269L131.065 33.4686C130.91 33.649 130.674 33.7453 130.391 33.7453C129.838 33.7453 129.47 33.3828 129.47 32.875C129.47 32.3673 129.834 32.0083 130.329 32.0083C130.824 32.0083 131.174 32.362 131.174 32.8856C131.174 32.9118 131.171 32.9503 131.167 32.9784L131.169 32.9766ZM129.78 32.7542H130.878C130.847 32.4688 130.63 32.2657 130.329 32.2657C130.028 32.2657 129.811 32.4653 129.78 32.7542Z" fill="white"/>
<path d="M133.607 32.7455V33.7243H133.297V32.7805C133.297 32.4461 133.13 32.2832 132.836 32.2832C132.507 32.2832 132.294 32.4793 132.294 32.8488V33.726H131.984V32.0241H132.282V32.2815C132.408 32.1081 132.627 32.0083 132.898 32.0083C133.315 32.0083 133.609 32.2464 133.609 32.7472L133.607 32.7455Z" fill="white"/>
<path d="M135.521 33.6265C135.428 33.707 135.285 33.7456 135.146 33.7456C134.801 33.7456 134.604 33.5565 134.604 33.2133V32.2782H134.313V32.0243H134.604V31.6514H134.914V32.0243H135.405V32.2782H134.914V33.1993C134.914 33.3831 135.011 33.4847 135.181 33.4847C135.271 33.4847 135.359 33.4549 135.424 33.4041L135.521 33.6265Z" fill="white"/>
<path d="M136.058 32.875C136.058 32.3673 136.437 32.0083 136.949 32.0083C137.461 32.0083 137.836 32.3673 137.836 32.875C137.836 33.3828 137.461 33.7453 136.949 33.7453C136.437 33.7453 136.058 33.3828 136.058 32.875ZM137.525 32.875C137.525 32.5126 137.28 32.278 136.949 32.278C136.618 32.278 136.371 32.5126 136.371 32.875C136.371 33.2375 136.62 33.4756 136.949 33.4756C137.278 33.4756 137.525 33.2375 137.525 32.875Z" fill="white"/>
<path d="M138.428 33.5457L138.556 33.3023C138.702 33.4056 138.935 33.4791 139.157 33.4791C139.444 33.4791 139.563 33.3916 139.563 33.248C139.563 32.8663 138.482 33.1972 138.482 32.5196C138.482 32.2149 138.757 32.0083 139.195 32.0083C139.419 32.0083 139.671 32.0661 139.819 32.1624L139.687 32.4058C139.532 32.306 139.361 32.271 139.192 32.271C138.921 32.271 138.789 32.3708 138.789 32.5056C138.789 32.9066 139.873 32.5791 139.873 33.241C139.873 33.5492 139.59 33.7453 139.134 33.7453C138.85 33.7453 138.569 33.6577 138.426 33.5457H138.428Z" fill="white"/>
<path d="M141.724 33.4685L141.843 33.2181C142.011 33.3687 142.299 33.479 142.59 33.479C142.981 33.479 143.148 33.3285 143.148 33.1323C143.148 32.5825 141.778 32.9292 141.778 32.0957C141.778 31.749 142.049 31.4531 142.644 31.4531C142.908 31.4531 143.183 31.5232 143.372 31.6527L143.264 31.9101C143.067 31.7858 142.845 31.728 142.644 31.728C142.261 31.728 142.095 31.8891 142.095 32.0852C142.095 32.6351 143.465 32.2901 143.465 33.1166C143.465 33.4598 143.187 33.7557 142.59 33.7557C142.245 33.7557 141.905 33.6401 141.724 33.4738V33.4685Z" fill="white"/>
<path d="M145.863 32.0242V33.7262H145.569V33.4688C145.442 33.6456 145.229 33.7455 144.988 33.7455C144.546 33.7455 144.252 33.5038 144.252 33.003V32.0242H144.562V32.968C144.562 33.3024 144.729 33.4688 145.023 33.4688C145.345 33.4688 145.553 33.2692 145.553 32.9032V32.0225H145.863V32.0242Z" fill="white"/>
<path d="M146.615 33.5457L146.743 33.3023C146.889 33.4056 147.122 33.4791 147.343 33.4791C147.63 33.4791 147.75 33.3916 147.75 33.248C147.75 32.8663 146.669 33.1972 146.669 32.5196C146.669 32.2149 146.944 32.0083 147.382 32.0083C147.606 32.0083 147.858 32.0661 148.005 32.1624L147.873 32.4058C147.718 32.306 147.548 32.271 147.379 32.271C147.107 32.271 146.975 32.3708 146.975 32.5056C146.975 32.9066 148.06 32.5791 148.06 33.241C148.06 33.5492 147.777 33.7453 147.321 33.7453C147.037 33.7453 146.755 33.6577 146.613 33.5457H146.615Z" fill="white"/>
<path d="M149.789 33.6265C149.696 33.707 149.553 33.7456 149.414 33.7456C149.069 33.7456 148.872 33.5565 148.872 33.2133V32.2782H148.581V32.0243H148.872V31.6514H149.181V32.0243H149.673V32.2782H149.181V33.1993C149.181 33.3831 149.278 33.4847 149.449 33.4847C149.539 33.4847 149.627 33.4549 149.692 33.4041L149.789 33.6265Z" fill="white"/>
<path d="M152.023 32.9766H150.634C150.673 33.276 150.916 33.4739 151.254 33.4739C151.454 33.4739 151.622 33.4056 151.748 33.269L151.919 33.4686C151.764 33.649 151.528 33.7453 151.245 33.7453C150.692 33.7453 150.324 33.3828 150.324 32.875C150.324 32.3673 150.689 32.0083 151.183 32.0083C151.678 32.0083 152.03 32.362 152.03 32.8856C152.03 32.9118 152.027 32.9503 152.023 32.9784V32.9766ZM150.634 32.7542H151.733C151.701 32.4688 151.484 32.2657 151.183 32.2657C150.882 32.2657 150.667 32.4653 150.634 32.7542Z" fill="white"/>
<path d="M154.46 32.7455V33.7243H154.15V32.7805C154.15 32.4461 153.983 32.2832 153.689 32.2832C153.359 32.2832 153.146 32.4793 153.146 32.8488V33.726H152.836V32.0241H153.134V32.2815C153.261 32.1081 153.479 32.0083 153.75 32.0083C154.167 32.0083 154.461 32.2464 154.461 32.7472L154.46 32.7455Z" fill="white"/>
<path d="M156.375 33.6265C156.282 33.707 156.139 33.7456 156 33.7456C155.655 33.7456 155.458 33.5565 155.458 33.2133V32.2782H155.167V32.0243H155.458V31.6514H155.768V32.0243H156.259V32.2782H155.768V33.1993C155.768 33.3831 155.865 33.4847 156.035 33.4847C156.125 33.4847 156.213 33.4549 156.278 33.4041L156.375 33.6265Z" fill="white"/>
<path d="M158.483 32.6981V33.726H158.189V33.5018C158.085 33.6559 157.895 33.7452 157.627 33.7452C157.24 33.7452 156.995 33.5404 156.995 33.2444C156.995 32.9713 157.173 32.7471 157.683 32.7471H158.175V32.6859C158.175 32.425 158.023 32.2744 157.717 32.2744C157.513 32.2744 157.307 32.3444 157.175 32.4565L157.046 32.2253C157.224 32.0835 157.479 32.0065 157.754 32.0065C158.222 32.0065 158.486 32.2306 158.486 32.6964L158.483 32.6981ZM158.173 33.2059V32.9678H157.696C157.389 32.9678 157.301 33.0868 157.301 33.2304C157.301 33.4003 157.444 33.5071 157.68 33.5071C157.916 33.5071 158.097 33.4003 158.175 33.2059H158.173ZM157.821 31.7771H157.53L157.969 31.3604H158.363L157.821 31.7771Z" fill="white"/>
<path d="M160.918 32.0239L160.169 33.7259H159.852L159.104 32.0239H159.426L160.014 33.388L160.615 32.0239H160.918Z" fill="white"/>
<path d="M163.078 32.9766H161.689C161.727 33.276 161.97 33.4739 162.308 33.4739C162.509 33.4739 162.676 33.4056 162.803 33.269L162.974 33.4686C162.819 33.649 162.583 33.7453 162.3 33.7453C161.747 33.7453 161.379 33.3828 161.379 32.875C161.379 32.3673 161.743 32.0083 162.238 32.0083C162.733 32.0083 163.085 32.362 163.085 32.8856C163.085 32.9118 163.081 32.9503 163.078 32.9784V32.9766ZM161.689 32.7542H162.787C162.756 32.4688 162.539 32.2657 162.238 32.2657C161.937 32.2657 161.722 32.4653 161.689 32.7542Z" fill="white"/>
<path d="M163.835 31.4971C163.835 31.385 163.925 31.2939 164.044 31.2939C164.164 31.2939 164.254 31.3815 164.254 31.4901C164.254 31.6056 164.166 31.6949 164.044 31.6949C163.923 31.6949 163.835 31.6074 163.835 31.4953V31.4971ZM163.889 32.0241H164.199V33.7261H163.889V32.0241Z" fill="white"/>
<path d="M164.953 33.5457L165.081 33.3023C165.227 33.4056 165.46 33.4791 165.682 33.4791C165.969 33.4791 166.088 33.3916 166.088 33.248C166.088 32.8663 165.007 33.1972 165.007 32.5196C165.007 32.2149 165.282 32.0083 165.72 32.0083C165.944 32.0083 166.196 32.0661 166.344 32.1624L166.212 32.4058C166.057 32.306 165.886 32.271 165.717 32.271C165.446 32.271 165.314 32.3708 165.314 32.5056C165.314 32.9066 166.398 32.5791 166.398 33.241C166.398 33.5492 166.113 33.7453 165.659 33.7453C165.375 33.7453 165.094 33.6577 164.951 33.5457H164.953Z" fill="white"/>
<path d="M8.47369 18.4609C11.1163 10.7407 18.4773 5.17247 27.1218 5.17247C35.7663 5.17247 43.5287 11.0506 45.9759 19.1L51.1785 18.3908C48.3474 7.81474 38.636 0 27.1218 0C15.6076 0 5.31344 8.29277 2.82925 19.3539L8.47545 18.4609H8.47369Z" fill="#B08046"/>
<path d="M25.7028 25.7764C26.7028 25.6013 27.7116 26.025 28.2838 26.8585L30.4881 30.0751C31.143 31.0294 32.2821 31.5372 33.4335 31.3848L54.2384 27.9564L52.7084 22.7944L30.7979 26.0881C29.974 26.2124 29.1535 25.8377 28.7116 25.1338L26.6782 21.8979C26.0179 20.7965 24.7433 20.2152 23.4721 20.4376L0 24.232L1.53699 29.6023L25.7028 25.7746V25.7764Z" fill="white"/>
<path d="M53.2084 31.3761L31.2627 34.675C30.4388 34.7993 29.6183 34.4246 29.1764 33.7207L27.143 30.4848C26.4827 29.3834 25.2081 28.8021 23.9369 29.0245L0.765869 32.7699L2.30286 38.142L26.1676 34.3633C27.1676 34.1882 28.1764 34.6119 28.7486 35.4454L30.9529 38.662C31.6078 39.6163 32.7469 40.1241 33.8983 39.9718L54.7384 36.5363L53.2084 31.3743V31.3761Z" fill="white"/>
</g>
<defs>
<clipPath id="clip0_44_635">
<rect width="166.4" height="40" fill="white"/>
</clipPath>
</defs>
</svg>
