<svg width="224" height="43" viewBox="0 0 224 43" fill="none" xmlns="http://www.w3.org/2000/svg">
<path d="M223.249 22.0232C192.564 21.0239 161.71 20.4501 130.831 20.2825C129.141 20.276 127.477 19.9021 125.948 19.1865L125.819 19.122C124.445 18.4837 123.349 17.3684 122.729 15.9823L120.859 11.7917C120.575 11.1534 119.672 11.1534 119.388 11.7917L117.517 15.9823C116.898 17.3684 115.801 18.4773 114.427 19.122H114.415C112.866 19.8505 111.183 20.2244 109.48 20.2244C72.9049 20.2502 36.3299 20.8498 0 22.0232C36.4395 23.1965 73.1113 23.7961 109.789 23.8219C111.441 23.8219 113.073 24.17 114.576 24.847C116.053 25.511 117.214 26.7166 117.827 28.2188L119.414 32.1193C119.678 32.7769 120.607 32.7898 120.897 32.1451L122.736 28.0318C123.355 26.6457 124.452 25.5368 125.826 24.8921L125.877 24.8663C127.406 24.1507 129.07 23.7768 130.76 23.7703C161.672 23.6027 192.551 23.0225 223.256 22.0232H223.249Z" fill="#A68665"/>
<path d="M12.8367 26.6458H7.46335V41.3451H12.8367V26.6458Z" fill="white"/>
<path d="M12.8367 0.999268H7.46335V17.4135H12.8367V0.999268Z" fill="white"/>
<path d="M55.901 42.3443C66.7123 42.3443 74.9626 39.0111 79.7232 30.6364L74.9562 28.5282C71.2922 34.6916 65.1835 38.0183 56.3848 38.0183C45.3865 38.0183 38.7682 33.4086 36.7234 26.6521H31.1694C33.369 35.7231 41.413 42.3507 55.8946 42.3507L55.901 42.3443Z" fill="white"/>
<path d="M55.901 4.10678C64.39 4.10678 71.2922 6.87902 74.4079 13.4873L79.0523 11.5467C75.0852 3.32668 65.3705 0 55.843 0C42.3225 0 32.595 6.02156 30.8404 17.4135H36.4589C38.136 8.76801 44.9479 4.10678 55.901 4.10678Z" fill="white"/>
<path d="M119.981 4.10678C131.341 4.10678 138.617 9.8898 140.185 17.4135H145.648C143.675 6.41483 133.502 0 119.981 0C106.461 0 96.2819 6.42128 94.3145 17.4135H99.7781C101.346 9.88335 108.622 4.10678 119.981 4.10678Z" fill="white"/>
<path d="M119.981 38.0183C111.08 38.0183 103.068 34.5562 100.397 26.6521H94.6111C97.4107 37.3607 108.835 42.3507 119.981 42.3507C131.128 42.3507 142.552 37.3607 145.352 26.6521H139.559C136.863 34.5626 128.787 38.0183 119.988 38.0183H119.981Z" fill="white"/>
<path d="M168.851 5.32525L180.779 17.4135H187.7L171.354 0.999268H163.717V17.4135H168.851V5.32525Z" fill="white"/>
<path d="M209.774 0.999268H204.401V17.4135H209.774V0.999268Z" fill="white"/>
<path d="M168.845 26.6458H163.717V41.3451H168.845V26.6458Z" fill="white"/>
<path d="M204.401 34.1888L196.892 26.6458H189.893L204.401 41.3451H209.774V26.6458H204.401V34.1888Z" fill="white"/>
</svg>
