<svg width="224" height="22" viewBox="0 0 224 22" fill="none" xmlns="http://www.w3.org/2000/svg">
<path d="M223.249 10.7102C192.564 9.71089 161.71 9.1371 130.831 8.96948C129.141 8.96303 127.477 8.5891 125.948 7.87348L125.819 7.80901C124.445 7.17075 123.349 6.0554 122.729 4.66929L120.859 0.478694C120.575 -0.159565 119.672 -0.159565 119.388 0.478694L117.517 4.66929C116.898 6.0554 115.801 7.1643 114.427 7.80901H114.415C112.866 8.53752 111.183 8.91145 109.48 8.91145C72.9049 8.93724 36.3299 9.53682 0 10.7102C36.4395 11.8835 73.1113 12.4831 109.789 12.5089C111.441 12.5089 113.073 12.8571 114.576 13.534C116.053 14.198 117.214 15.4036 117.827 16.9058L119.414 20.8063C119.678 21.4639 120.607 21.4768 120.897 20.8321L122.736 16.7188C123.355 15.3327 124.452 14.2238 125.826 13.5791L125.877 13.5533C127.406 12.8377 129.07 12.4638 130.76 12.4573C161.672 12.2897 192.551 11.7095 223.256 10.7102H223.249Z" fill="#A68665"/>
</svg>
